<?xml version="1.0" encoding="utf-8"?>
<!-- Generator: Adobe Illustrator 26.0.2, SVG Export Plug-In . SVG Version: 6.00 Build 0)  -->
<svg version="1.1" id="Layer_1" xmlns:serif="http://www.serif.com/"
	 xmlns="http://www.w3.org/2000/svg" xmlns:xlink="http://www.w3.org/1999/xlink" x="0px" y="0px" viewBox="0 0 236 269.3"
	 style="enable-background:new 0 0 236 269.3;" xml:space="preserve">
<style type="text/css">
	.st0{fill:#276257;}
</style>
<g transform="matrix(1,0,0,1,-1451.77,-763.114)">
	<g transform="matrix(1,0,0,1,1527.56,920.567)">
		<path class="st0" d="M42.2,86.1L31.1,72.9l-8.5-10.1C-2.8,66-21.3,75.2-21.3,86.2c0,13.7,28.4,24.7,63.5,24.7
			c35,0,63.5-11.1,63.5-24.7c0-11-18.5-20.2-43.9-23.4l-8.5,10.1L42.2,86.1z"/>
	</g>
	<g transform="matrix(1,0,0,1,1497.82,844.817)">
		<path class="st0" d="M25.6,12.1c-19.3,7-40.5-2.9-47.5-22.2S-19-50.6,0.3-57.6s40.5,2.9,47.5,22.2S44.9,5.1,25.6,12.1 M151.1-78.1
			c-6.7-2.4-13.5-3.6-20.2-3.6c-20.2,0-39.2,10.5-50,28c0.8,1.8,1.8,3.5,2.4,5.4c2,5.6,3.1,11.3,3.8,17c6.9-14,26.2-29.3,43.8-28.7
			c4.3,0,8.6,0.8,12.7,2.3c19.3,7,29.3,28.5,22.3,47.8c-1.6,4.4-4,8.4-7.3,12.2L71.9,105.6V-21.3l0,0c0.2-7.1-1-14.4-3.6-21.5
			c-4.4-12-12.2-21.7-21.9-28.4c-7.3-5-15.7-8.4-24.5-9.7C19-81.4,16-81.6,13-81.6c-6.7,0-13.5,1.1-20.2,3.6
			C-37.8-67-53.6-33.1-42.5-2.5c2.6,7.1,6.4,13.4,11.1,18.8L71.9,139.4L175.2,16.2c4.7-5.4,8.5-11.6,11.1-18.8
			C197.5-33.1,181.7-67,151.1-78.1"/>
	</g>
</g>
</svg>
